<?xml version="1.0" encoding="UTF-8" standalone="no"?>
<!DOCTYPE svg PUBLIC "-//W3C//DTD SVG 1.1//EN" "http://www.w3.org/Graphics/SVG/1.1/DTD/svg11.dtd">
<svg width="100%" height="100%" viewBox="0 0 1508 312" version="1.1" xmlns="http://www.w3.org/2000/svg" xmlns:xlink="http://www.w3.org/1999/xlink" xml:space="preserve" xmlns:serif="http://www.serif.com/" style="fill-rule:evenodd;clip-rule:evenodd;stroke-linejoin:round;stroke-miterlimit:1.41421;">
    <g transform="matrix(1,0,0,1,-837.379,-173.944)">
        <g transform="matrix(1,0,0,1,1136.88,-507.337)">
            <rect x="457.409" y="681.281" width="72.477" height="311.65" style="fill:white;"/>
        </g>
        <g transform="matrix(1,0,0,1,1291.88,-507.337)">
            <rect x="457.409" y="681.281" width="72.477" height="311.65" style="fill:white;"/>
        </g>
        <g transform="matrix(1,0,0,1,1446.88,-507.337)">
            <rect x="457.409" y="681.281" width="72.477" height="311.65" style="fill:white;"/>
        </g>
        <g transform="matrix(1,0,0,1,1601.88,-507.337)">
            <rect x="457.409" y="681.281" width="72.477" height="311.65" style="fill:white;"/>
        </g>
        <g transform="matrix(6.73556e-17,1.1,-4.83721,2.96194e-16,5640.4,-220.619)">
            <rect x="457.409" y="681.281" width="72.477" height="311.65" style="fill:white;"/>
        </g>
    </g>
</svg>
